<svg width="18" height="18" viewBox="0 0 18 18" fill="none" xmlns="http://www.w3.org/2000/svg"><path fill-rule="evenodd" clip-rule="evenodd" d="M9.00033 0.666748C6.79019 0.666748 4.67057 1.54472 3.10777 3.10752C1.54497 4.67033 0.666992 6.78994 0.666992 9.00008C0.666992 11.2102 1.54497 13.3298 3.10777 14.8926C4.67057 16.4554 6.79019 17.3334 9.00033 17.3334C11.2105 17.3334 13.3301 16.4554 14.8929 14.8926C16.4557 13.3298 17.3337 11.2102 17.3337 9.00008C17.3337 6.78994 16.4557 4.67033 14.8929 3.10752C13.3301 1.54472 11.2105 0.666748 9.00033 0.666748ZM3.84434 3.84409C5.21179 2.47664 7.06645 1.70841 9.00033 1.70841C10.9342 1.70841 12.7889 2.47664 14.1563 3.84409C15.5238 5.21155 16.292 7.06621 16.292 9.00008C16.292 10.934 15.5238 12.7886 14.1563 14.1561C12.7889 15.5235 10.9342 16.2917 9.00033 16.2917C7.06645 16.2917 5.21179 15.5235 3.84434 14.1561C2.47689 12.7886 1.70866 10.934 1.70866 9.00008C1.70866 7.06621 2.47689 5.21155 3.84434 3.84409ZM8.30587 4.96508C8.43434 4.87923 8.58539 4.83341 8.73991 4.83341C8.94711 4.83341 9.14582 4.91572 9.29234 5.06224C9.43885 5.20875 9.52116 5.40746 9.52116 5.61466C9.52116 5.76918 9.47534 5.92023 9.38949 6.0487C9.30365 6.17718 9.18163 6.27731 9.03888 6.33645C8.89613 6.39558 8.73904 6.41105 8.58749 6.3809C8.43595 6.35076 8.29674 6.27635 8.18748 6.16709C8.07822 6.05783 8.00381 5.91862 7.97367 5.76708C7.94353 5.61553 7.959 5.45845 8.01813 5.31569C8.07726 5.17294 8.17739 5.05092 8.30587 4.96508ZM7.95866 7.43758C7.67101 7.43758 7.43783 7.67077 7.43783 7.95841C7.43783 8.24606 7.67101 8.47925 7.95866 8.47925H8.47949V11.0834C8.47949 11.4978 8.64411 11.8952 8.93714 12.1883C9.23016 12.4813 9.62759 12.6459 10.042 12.6459H10.5628C10.8505 12.6459 11.0837 12.4127 11.0837 12.1251C11.0837 11.8374 10.8505 11.6042 10.5628 11.6042H10.042C9.90386 11.6042 9.77138 11.5494 9.67371 11.4517C9.57603 11.354 9.52116 11.2215 9.52116 11.0834V8.47925C9.52116 8.20298 9.41141 7.93803 9.21606 7.74268C9.02071 7.54733 8.75576 7.43758 8.47949 7.43758H7.95866Z" fill="black"></path></svg>